<?xml version="1.0" standalone="no"?>
<!DOCTYPE svg PUBLIC "-//W3C//DTD SVG 20010904//EN"
 "http://www.w3.org/TR/2001/REC-SVG-20010904/DTD/svg10.dtd">
<svg version="1.0" xmlns="http://www.w3.org/2000/svg"
 width="512.000000pt" height="512.000000pt" viewBox="0 0 512.000000 512.000000"
 preserveAspectRatio="xMidYMid meet">

<g transform="translate(0.000000,512.000000) scale(0.100000,-0.100000)"
fill="#000000" stroke="none">
<path d="M2305 3740 c-277 -62 -471 -173 -673 -384 -220 -230 -322 -488 -322
-817 0 -256 67 -483 200 -679 149 -218 361 -391 590 -480 158 -62 399 -90 556
-65 337 54 531 140 585 260 22 48 25 152 5 198 -27 63 -109 117 -202 132 -35
5 -57 0 -145 -38 -171 -72 -253 -90 -389 -84 -227 10 -385 79 -541 237 -67 68
-138 187 -124 209 4 8 266 11 868 11 544 0 875 4 898 10 43 12 99 64 125 116
24 50 31 232 14 354 -14 95 -66 264 -106 343 -70 141 -216 325 -335 423 -168
139 -319 212 -528 255 -125 26 -361 25 -476 -1z m457 -481 c95 -31 182 -83
286 -168 80 -66 232 -305 232 -365 l0 -26 -741 0 -742 0 6 35 c9 53 72 173
135 255 97 126 221 218 357 265 113 39 353 41 467 4z"/>
</g>
</svg>
